<?xml version="1.0" standalone="no"?>
<!DOCTYPE svg PUBLIC "-//W3C//DTD SVG 1.1//EN"
  "http://www.w3.org/Graphics/SVG/1.1/DTD/svg11.dtd">
<svg width="280.7625427246094mm" height="122.6991329193115mm" viewBox="-35 -94.73937225341795 280.7625427246094 122.6991329193115" xmlns="http://www.w3.org/2000/svg" version="1.1">
	<title>svgOutput</title>
	<desc>made with tinkercad</desc>
<path d="M 242.42100524902344 6.082314014434813 L 242.593505859375 6.14400005340576 L 242.82839965820312 6.228000164031981 L 243.06199645996094 6.311282157897947 L 243.67733764648438 6.686272144317625 L 243.68099975585938 6.688506126403807 L 243.68333435058594 6.690577507019041 L 243.71200561523438 6.722536087036131 L 243.9846954345703 7.026602268218992 L 244.2679901123047 7.340970039367674 L 244.26800537109375 7.340976238250731 L 244.2689666748047 7.342423915863035 L 244.26962280273438 7.343413829803465 L 244.27122497558594 7.346727848052977 L 244.55162048339844 7.928008556365965 L 244.6287078857422 8.19200038909912 L 244.6662139892578 8.320396423339842 L 244.71075439453125 8.473253250122069 L 244.75692749023438 8.942807197570799 L 244.76254272460938 8.999999999999998 L 244.75692749023438 9.057192802429197 L 244.74131774902344 9.215999603271483 L 244.71075439453125 9.526746749877928 L 244.6662139892578 9.679603576660154 L 244.55162048339844 10.07199192047119 L 244.4705810546875 10.239999771118162 L 244.27122497558594 10.653272628784178 L 244.27053833007812 10.654675483703612 L 244.26962280273438 10.65658664703369 L 244.2689666748047 10.657575607299803 L 244.26800537109375 10.659024238586424 L 244.2679901123047 10.659029960632322 L 243.9846954345703 10.973397254943846 L 243.71200561523438 11.277463912963865 L 243.68507385253906 11.307485580444334 L 243.68333435058594 11.309422492980955 L 243.68099975585938 11.31149387359619 L 243.67955017089844 11.312376022338865 L 243.67733764648438 11.313727378845213 L 243.06300354003906 11.688109397888182 L 243.06199645996094 11.688717842102049 L 242.82839965820312 11.772000312805174 L 242.42100524902344 11.917686462402342 L 241.8341064453125 11.986806869506834 L 241.76800537109375 11.994544982910154 L 241.701904296875 11.986806869506834 L 241.66400146484375 11.982343673706053 L 241.11500549316406 11.917686462402342 L 240.7075958251953 11.772000312805174 L 240.4739990234375 11.688717842102049 L 240.47300720214844 11.688109397888182 L 239.85865783691406 11.313727378845213 L 239.8564453125 11.312376022338865 L 239.85499572753906 11.31149387359619 L 239.8526611328125 11.309422492980955 L 239.85092163085938 11.307485580444334 L 239.61599731445312 11.045538902282713 L 239.55130004882812 10.973397254943846 L 239.26800537109375 10.659024238586424 L 239.2670440673828 10.657575607299803 L 239.26638793945312 10.65658664703369 L 239.26637268066406 10.656580924987791 L 239.2654571533203 10.654675483703612 L 239.26478576660156 10.653272628784178 L 239.06541442871094 10.239999771118162 L 238.984375 10.07199192047119 L 238.8697967529297 9.679603576660154 L 238.8252410888672 9.526746749877928 L 238.794677734375 9.215999603271483 L 238.77906799316406 9.057192802429197 L 238.77345275878906 8.999999999999998 L 238.77906799316406 8.942807197570799 L 238.8252410888672 8.473253250122069 L 238.8697967529297 8.320396423339842 L 238.90728759765625 8.19200038909912 L 238.984375 7.928008556365965 L 239.26478576660156 7.346727848052977 L 239.26638793945312 7.343413829803465 L 239.2670440673828 7.342423915863035 L 239.26800537109375 7.340976238250731 L 239.26800537109375 7.340970039367674 L 239.55130004882812 7.026602268218992 L 239.61599731445312 6.954461574554442 L 239.8526611328125 6.690577507019041 L 239.85499572753906 6.688506126403807 L 239.857177734375 6.687178611755369 L 239.85865783691406 6.686272144317625 L 240.4739990234375 6.311282157897947 L 240.7075958251953 6.228000164031981 L 240.9425048828125 6.14400005340576 L 241.11500549316406 6.082314014434813 L 241.11683654785156 6.0820975303649885 L 241.66400146484375 6.017656803131102 L 241.701904296875 6.013193130493162 L 241.76800537109375 6.005454540252684 L 241.8341064453125 6.013193130493162 L 242.41915893554688 6.0820975303649885 L 242.42100524902344 6.082314014434813 M 233.54318237304688 6.107727050781248 L 233.54319763183594 6.107735157012938 L 233.5713653564453 6.117272853851317 L 233.65008544921875 6.14400005340576 L 233.91375732421875 6.23352527618408 L 233.91409301757812 6.233636379241942 L 233.94073486328125 6.246818065643309 L 234.26527404785156 6.406818389892576 L 234.49600219726562 6.560868740081785 L 234.56617736816406 6.607727050781248 L 234.59091186523438 6.6242728233337385 L 234.61326599121094 6.6438183784484846 L 234.8850860595703 6.8829092979431135 L 235.12417602539062 7.154727458953856 L 235.1357879638672 7.16800022125244 L 235.1437225341797 7.177091121673582 L 235.1602783203125 7.2018179893493635 L 235.36117553710938 7.50272750854492 L 235.52000427246094 7.824875354766844 L 235.52117919921875 7.827272891998289 L 235.53436279296875 7.853909015655516 L 235.5344696044922 7.854223251342772 L 235.5516357421875 7.905727386474608 L 235.61436462402344 8.090272903442381 L 235.63893127441406 8.16501998901367 L 235.64060974121094 8.170127868652342 L 235.64804077148438 8.177116394042967 L 235.6592559814453 8.19200038909912 L 235.66531372070312 8.200044631958006 L 235.66748046875 8.202921867370604 L 235.66867065429688 8.204500198364256 L 235.66943359375 8.208571434020994 L 235.67474365234375 8.22848606109619 L 235.68075561523438 8.249432563781737 L 235.6900634765625 8.285876274108885 L 235.71083068847656 8.367278099060057 L 235.733642578125 8.456779479980467 L 235.76744079589844 8.589347839355467 L 235.77188110351562 8.606786727905272 L 235.77394104003906 8.614688873291014 L 235.77833557128906 8.631491661071776 L 235.8736572265625 8.999999999999998 L 235.81777954101562 9.215999603271483 L 235.77833557128906 9.36850833892822 L 235.77394104003906 9.385311126708983 L 235.77188110351562 9.393213272094725 L 235.76744079589844 9.41065216064453 L 235.72946166992188 9.559629440307615 L 235.71083068847656 9.63272190093994 L 235.6900634765625 9.714123725891112 L 235.68075561523438 9.75056743621826 L 235.67474365234375 9.771513938903807 L 235.66943359375 9.791428565979002 L 235.66867065429688 9.79549980163574 L 235.6681671142578 9.796167373657225 L 235.6665496826172 9.79832077026367 L 235.64804077148438 9.82288360595703 L 235.64060974121094 9.829872131347654 L 235.63893127441406 9.834980010986326 L 235.61436462402344 9.909727096557615 L 235.5516357421875 10.094272613525389 L 235.53436279296875 10.146090507507322 L 235.5332794189453 10.148286819458006 L 235.52117919921875 10.172727584838865 L 235.52000427246094 10.175124168395994 L 235.48802185058594 10.239999771118162 L 235.36117553710938 10.497272491455076 L 235.35882568359375 10.500809669494627 L 235.1602783203125 10.798181533813475 L 235.1437225341797 10.822909355163572 L 235.12417602539062 10.845273017883299 L 234.8850860595703 11.117091178894041 L 234.71807861328125 11.263999938964842 L 234.61326599121094 11.35618209838867 L 234.59091186523438 11.375727653503416 L 234.56617736816406 11.392272949218748 L 234.49600219726562 11.43913173675537 L 234.26527404785156 11.59318161010742 L 233.94073486328125 11.75318145751953 L 233.91409301757812 11.766364097595213 L 233.91375732421875 11.766474723815916 L 233.5713653564453 11.882727622985838 L 233.54318237304688 11.892272949218748 L 233.51400756835938 11.898091316223143 L 233.4720001220703 11.906469345092772 L 233.15853881835938 11.968999862670897 L 233.1582489013672 11.969018936157225 L 233.12890625 11.970909118652342 L 232.76800537109375 11.994544982910154 L 232.76498413085938 11.994351387023924 L 232.7383575439453 11.992636680603026 L 232.447998046875 11.973620414733885 L 232.37745666503906 11.968999862670897 L 232.02200317382812 11.898091316223143 L 231.99281311035156 11.892272949218748 L 231.9927978515625 11.8922643661499 L 231.96463012695312 11.882727622985838 L 231.6219024658203 11.766364097595213 L 231.59527587890625 11.75318145751953 L 231.4239959716797 11.668745040893553 L 231.27072143554688 11.59318161010742 L 230.96981811523438 11.392272949218748 L 230.94508361816406 11.375727653503416 L 230.9227294921875 11.35618209838867 L 230.81793212890625 11.263999938964842 L 230.65090942382812 11.117091178894041 L 230.4118194580078 10.845273017883299 L 230.39999389648438 10.831750869750975 L 230.39227294921875 10.822909355163572 L 230.375732421875 10.798181533813475 L 230.17481994628906 10.497272491455076 L 230.04798889160156 10.239999771118162 L 230.0148162841797 10.172727584838865 L 230.0016326904297 10.146090507507322 L 230.00152587890625 10.145765304565428 L 229.99209594726562 10.117909431457518 L 229.875732421875 9.775181770324705 L 229.87533569335938 9.773181915283201 L 229.86990356445312 9.74600028991699 L 229.7989959716797 9.390545845031737 L 229.79898071289062 9.390249252319334 L 229.78756713867188 9.215999603271483 L 229.77536010742188 9.029636383056639 L 229.77345275878906 8.999999999999998 L 229.77536010742188 8.970363616943358 L 229.7989959716797 8.60945415496826 L 229.86990356445312 8.253999710083006 L 229.875732421875 8.224818229675291 L 229.875732421875 8.224795341491697 L 229.88687133789062 8.19200038909912 L 229.99209594726562 7.882091045379637 L 230.00152587890625 7.85423421859741 L 230.0016326904297 7.853909015655516 L 230.0148162841797 7.827272891998289 L 230.17481994628906 7.50272750854492 L 230.375732421875 7.2018179893493635 L 230.39227294921875 7.177091121673582 L 230.39999389648438 7.16824960708618 L 230.4002227783203 7.16800022125244 L 230.4118194580078 7.154727458953856 L 230.65090942382812 6.8829092979431135 L 230.9227294921875 6.6438183784484846 L 230.94508361816406 6.6242728233337385 L 230.96981811523438 6.607727050781248 L 231.27072143554688 6.406818389892576 L 231.4239959716797 6.3312549591064435 L 231.59527587890625 6.246818065643309 L 231.6219024658203 6.233636379241942 L 231.6222381591797 6.23352527618408 L 231.8859100341797 6.14400005340576 L 231.96463012695312 6.117272853851317 L 231.99281311035156 6.107727050781248 L 232.02200317382812 6.101909160614012 L 232.37745666503906 6.0310001373291 L 232.37774658203125 6.0309805870056135 L 232.447998046875 6.02638006210327 L 232.7383575439453 6.007363796234129 L 232.76800537109375 6.005454540252684 L 233.12890625 6.0290908813476545 L 233.15853881835938 6.0310001373291 L 233.15878295898438 6.031047344207762 L 233.4720001220703 6.093530654907225 L 233.51400756835938 6.101909160614012 L 233.54318237304688 6.107727050781248 M 16.546329498291016 11.842978477478026 L 16.400548934936523 11.957859039306639 L 16.384000778198242 11.970956802368162 L 16.320816040039062 12.020963668823239 L 16.217620849609375 12.065826416015621 L 15.9735746383667 12.17203044891357 L 15.97297477722168 12.172183990478512 L 15.582091331481934 12.27236461639404 L 15.514592170715332 12.285488128662106 L 15.4893159866333 12.28800010681152 L 15.036054611206055 12.333045959472653 L 14.850774765014648 12.351748466491696 L 14.712750434875488 12.354904174804684 L 14.638602256774902 12.356452941894528 L 14.637656211853027 12.356472015380856 L 14.587897300720215 12.357511520385739 L 14.584639549255371 12.35758018493652 L 14.414966583251953 12.374740600585934 L 14.21613883972168 12.394850730895993 L 14.140026092529297 12.402495384216305 L 13.971114158630371 12.435385704040524 L 13.970626831054688 12.435481071472164 L 13.518715858459473 12.488945960998532 L 13.398414611816406 12.503189086914059 L 12.78765869140625 12.575497627258297 L 12.601588249206543 12.58132171630859 L 12.5908203125 12.581658363342282 L 12.288000106811523 12.591333389282223 L 11.773204803466797 12.607780456542965 L 11.760683059692383 12.60704135894775 L 10.962398529052734 12.559924125671383 L 10.767197608947754 12.548491477966305 L 10.054457664489746 12.44301891326904 L 9.615344047546387 12.378044128417965 L 9.61374282836914 12.37780666351318 L 9.613680839538574 12.377792358398434 L 9.450973510742188 12.340504646301266 L 9.376227378845215 12.331068038940426 L 9.034812927246094 12.28800010681152 L 9.014360427856445 12.285420417785641 L 8.88769245147705 12.278961181640621 L 8.751364707946777 12.272258758544918 L 8.751225471496582 12.272252082824703 L 8.569845199584961 12.248894691467282 L 8.192000389099121 12.200262069702145 L 8.100441932678223 12.188477516174313 L 8.035612106323242 12.173659324645993 L 7.664425373077393 12.063784599304196 L 7.4407453536987305 11.951467514038084 L 7.346337795257568 11.903783798217772 L 7.346183776855469 11.903706550598143 L 7.278491497039795 11.83894348144531 L 7.154669761657715 11.720606803894041 L 7.132012367248535 11.63766574859619 L 7.101755619049072 11.52468681335449 L 7.152723789215088 11.413867950439451 L 7.190669536590576 11.331606864929197 L 7.336451053619385 11.21614074707031 L 7.416183948516846 11.15303611755371 L 7.519379138946533 11.107875823974608 L 7.763425350189209 11.00178527832031 L 8.154909133911133 10.901635169982908 L 8.192000389099121 10.894409179687498 L 8.222442626953125 10.888478279113768 L 8.830702781677246 10.827700614929197 L 8.884742736816406 10.822323799133299 L 8.884860038757324 10.822312355041502 L 8.885683059692383 10.822230339050291 L 8.92662239074707 10.82135486602783 L 9.215999603271484 10.81471824645996 L 9.477067947387695 10.80873107910156 L 9.540243148803711 10.807113647460936 L 9.58237075805664 10.806034088134764 L 9.582529067993164 10.806030273437498 L 9.583468437194824 10.806006431579588 L 9.58366870880127 10.80600070953369 L 9.583708763122559 10.805999755859373 L 9.584124565124512 10.801208496093748 L 9.585708618164062 10.784583091735838 L 9.624883651733398 10.785098075866697 L 9.629672050476074 10.785161972045897 L 9.96133041381836 10.789965629577635 L 10.008919715881348 10.790559768676756 L 10.123274803161621 10.791937828063963 L 10.1297025680542 10.792015075683592 L 10.179944038391113 10.792619705200194 L 10.239999771118164 10.793343544006346 L 10.379413604736328 10.795022964477537 L 10.682254791259766 10.799109458923338 L 10.747097969055176 10.800027847290037 L 10.791876792907715 10.800386428833006 L 11.012782096862793 10.803346633911131 L 11.120174407958984 10.80479335784912 L 11.125309944152832 10.804855346679686 L 11.238882064819336 10.806219100952147 L 11.266366004943848 10.806610107421873 L 11.62271499633789 10.811520576477049 L 11.752482414245605 10.81330871582031 L 11.801025390625 10.813977241516112 L 11.831512451171875 10.81437301635742 L 11.83187198638916 10.814376831054686 L 11.862504959106445 10.814780235290526 L 11.863872528076172 10.814808845520018 L 11.881952285766602 10.815185546874998 L 11.891810417175293 10.815184593200682 L 11.893292427062988 10.815184593200682 L 11.894109725952148 10.815184593200682 L 11.895320892333984 10.815184593200682 L 11.895939826965332 10.815208435058592 L 11.896379470825195 10.81522464752197 L 11.897221565246582 10.815257072448729 L 11.905906677246094 10.815591812133787 L 11.91447639465332 10.815591812133787 L 11.922033309936523 10.815591812133787 L 11.92221450805664 10.815591812133787 L 11.924271583557129 10.815591812133787 L 11.92551040649414 10.815591812133787 L 11.926549911499023 10.815591812133787 L 11.928340911865234 10.815591812133787 L 11.936355590820312 10.815723419189451 L 11.939056396484375 10.815767288208006 L 11.94478988647461 10.81586170196533 L 11.953250885009766 10.81599998474121 L 11.955344200134277 10.81599998474121 L 11.956999778747559 10.81599998474121 L 11.957025527954102 10.81599998474121 L 11.959376335144043 10.81599998474121 L 11.96017837524414 10.816041946411131 L 11.960715293884277 10.816070556640623 L 11.961784362792969 10.816126823425291 L 11.96711540222168 10.816408157348631 L 11.975685119628906 10.816408157348631 L 11.982648849487305 10.816408157348631 L 11.986271858215332 10.816408157348631 L 11.989154815673828 10.81649589538574 L 11.999640464782715 10.81681442260742 L 12.012784957885742 10.816813468933104 L 12.017244338989258 10.816813468933104 L 12.017733573913574 10.816813468933104 L 12.01868724822998 10.816813468933104 L 12.019088745117188 10.816813468933104 L 12.049721717834473 10.817216873168944 L 12.080570220947266 10.81761837005615 L 12.288000106811523 10.820248603820799 L 12.614633560180664 10.824390411376951 L 12.642118453979492 10.824781417846678 L 12.663065910339355 10.82503318786621 L 12.70560073852539 10.825543403625487 L 12.75568962097168 10.826145172119139 L 12.760826110839844 10.826207160949705 L 12.807989120483398 10.826842308044432 L 12.868218421936035 10.827652931213377 L 13.089122772216797 10.830613136291502 L 13.133901596069336 10.831261634826658 L 13.198745727539062 10.83216857910156 L 13.5015869140625 10.836201667785643 L 13.539326667785645 10.836646080017088 L 13.872079849243164 10.84055995941162 L 13.919670104980469 10.841141700744627 L 14.199234962463379 10.84511089324951 L 14.251327514648438 10.845850944519041 L 14.256115913391113 10.845912933349608 L 14.295291900634766 10.84641647338867 L 14.29529094696045 10.846425056457518 L 14.295286178588867 10.84647464752197 L 14.295257568359375 10.846775054931639 L 14.293708801269531 10.86304187774658 L 14.293302536010742 10.867711067199705 L 14.293292045593262 10.867833137512205 L 14.29423999786377 10.867881774902342 L 14.29438304901123 10.867889404296873 L 14.332581520080566 10.869837760925291 L 14.336000442504883 10.870012283325194 L 14.336783409118652 10.870052337646483 L 14.389508247375488 10.872742652893065 L 14.399450302124023 10.873249053955076 L 14.945731163024902 10.899810791015623 L 14.986316680908203 10.901769638061522 L 15.04022216796875 10.908708572387694 L 15.636557579040527 10.985522270202635 L 15.701387405395508 11.000340461730955 L 16.072574615478516 11.110215187072752 L 16.296255111694336 11.222532272338865 L 16.378355026245117 11.263999938964842 L 16.384000778198242 11.266851425170897 L 16.39081573486328 11.270294189453123 L 16.458507537841797 11.335056304931639 L 16.58233070373535 11.453978538513182 L 16.60498809814453 11.53691005706787 L 16.635244369506836 11.64931297302246 L 16.58427619934082 11.760706901550291 L 16.54669189453125 11.842195510864256 L 16.546329498291016 11.842978477478026 M 13.674149513244629 24.445810317993157 L 13.674813270568848 24.446166992187493 L 13.891539573669434 24.56280326843261 L 13.900490760803223 24.567621231079094 L 13.915122985839844 24.575494766235344 L 13.916060447692871 24.57600021362304 L 13.923406600952148 24.57995414733886 L 14.139037132263184 24.696716308593743 L 14.139415740966797 24.696920394897454 L 14.208760261535645 24.751974105834954 L 14.336000442504883 24.85281562805175 L 14.403013229370117 24.905925750732415 L 14.461681365966797 24.95938301086425 L 14.474255561828613 24.980051040649407 L 14.624931335449219 25.22948265075683 L 14.652891159057617 25.422195434570305 L 14.664057731628418 25.50215530395507 L 14.637972831726074 25.581315994262688 L 14.573931694030762 25.77348327636718 L 14.377083778381348 26.018096923828118 L 14.36074447631836 26.03838348388671 L 14.336000442504883 26.057115554809563 L 14.292214393615723 26.090257644653313 L 14.069809913635254 26.238933563232415 L 13.990415573120117 26.29192161560058 L 13.753020286560059 26.402765274047844 L 13.479808807373047 26.5296401977539 L 13.47914981842041 26.52994537353515 L 13.428436279296875 26.547393798828118 L 13.371691703796387 26.567005157470696 L 13.368301391601562 26.568178176879876 L 13.176507949829102 26.6240005493164 L 12.752449989318848 26.747423171997063 L 12.750301361083984 26.748048782348626 L 12.679515838623047 26.76355552673339 L 12.63140869140625 26.77419471740722 L 12.631021499633789 26.774280548095696 L 12.450849533081055 26.80548667907714 L 12.288000106811523 26.8337116241455 L 12.005292892456055 26.882707595825188 L 11.872763633728027 26.899030685424798 L 11.555821418762207 26.93742942810058 L 11.519732475280762 26.940622329711907 L 11.446178436279297 26.94752883911132 L 11.43505859375 26.948114395141594 L 11.310809135437012 26.954650878906243 L 11.205108642578125 26.95970153808593 L 11.203873634338379 26.959760665893548 L 11.133987426757812 26.958770751953118 L 10.931001663208008 26.955900192260735 L 10.891125679016113 26.955425262451165 L 10.462545394897461 26.95031547546386 L 10.434000015258789 26.950000762939446 L 10.419734001159668 26.949804306030266 L 10.405375480651855 26.949605941772454 L 10.239999771118164 26.947309494018548 L 9.936948776245117 26.94309997558593 L 9.6641263961792 26.93977737426757 L 9.662053108215332 26.939619064331048 L 9.558202743530273 26.93168640136718 L 9.425415992736816 26.92162895202636 L 9.424113273620605 26.921529769897454 L 9.351707458496094 26.912801742553704 L 9.31638240814209 26.908571243286126 L 9.008193016052246 26.861124038696282 L 8.878993034362793 26.841518402099602 L 8.873507499694824 26.840387344360344 L 8.448810577392578 26.75285911560058 L 8.275055885314941 26.71716117858886 L 8.274711608886719 26.717090606689446 L 8.228364944458008 26.705234527587884 L 8.192000389099121 26.695945739746087 L 8.160697937011719 26.687950134277337 L 7.969117641448975 26.6240005493164 L 7.5776686668396 26.49333190917968 L 7.577352523803711 26.493227005004876 L 7.521285057067871 26.470914840698235 L 7.476728439331055 26.453199386596673 L 7.473850727081299 26.452054977416985 L 7.224593162536621 26.317047119140618 L 7.009653091430664 26.20097923278808 L 7.009287357330322 26.2007827758789 L 6.940030574798584 26.14581680297851 L 6.7459869384765625 25.992074966430657 L 6.687254905700684 25.938552856445305 L 6.674667835235596 25.917947769165032 L 6.523068904876709 25.66851615905761 L 6.513164520263672 25.60000038146972 L 6.4951090812683105 25.475097656249993 L 6.484250068664551 25.39515304565429 L 6.510026931762695 25.31568527221679 L 6.574068546295166 25.124269485473626 L 6.77091646194458 24.87982749938964 L 6.786211013793945 24.860908508300774 L 6.78725528717041 24.859615325927727 L 6.855989456176758 24.807741165161126 L 6.860785484313965 24.804544448852532 L 7.078980445861816 24.659067153930657 L 7.158287525177002 24.605781555175774 L 7.160358905792236 24.604810714721673 L 7.22174596786499 24.57600021362304 L 7.394979476928711 24.494699478149407 L 7.668850421905518 24.367189407348626 L 7.719644069671631 24.349685668945305 L 7.779698371887207 24.328996658325188 L 8.192000389099121 24.20954513549804 L 8.397698402404785 24.149950027465813 L 8.42238998413086 24.144472122192376 L 8.457082748413086 24.13689231872558 L 8.516797065734863 24.1238784790039 L 8.882378578186035 24.060285568237298 L 9.012151718139648 24.02294158935546 L 9.053186416625977 24.01113319396972 L 9.111064910888672 23.994371414184567 L 9.115976333618164 23.99294853210449 L 9.140264511108398 23.98591613769531 L 9.146195411682129 23.98420143127441 L 9.149049758911133 23.983703613281246 L 9.153014183044434 23.98301315307617 L 9.159539222717285 23.981878280639645 L 9.194564819335938 23.975780487060543 L 9.20355224609375 23.974216461181637 L 9.626883506774902 23.900518417358395 L 9.684549331665039 23.890480041503903 L 9.722468376159668 23.883815765380856 L 9.946990013122559 23.844583511352536 L 9.972590446472168 23.840209960937496 L 9.973610877990723 23.840156555175778 L 9.985674858093262 23.839538574218746 L 10.106884002685547 23.833318710327145 L 10.21977710723877 23.827642440795895 L 10.239999771118164 23.826625823974606 L 10.326973915100098 23.822252273559567 L 10.727511405944824 23.801452636718746 L 10.732647895812988 23.801853179931637 L 10.788594245910645 23.806232452392575 L 11.124424934387207 23.832513809204098 L 11.341548919677734 23.84926605224609 L 11.47424030303955 23.859592437744137 L 11.47657299041748 23.860073089599606 L 11.49893856048584 23.86468124389648 L 11.716035842895508 23.909713745117184 L 11.752642631530762 23.917379379272457 L 12.265127182006836 24.023529052734368 L 12.27164363861084 24.0248737335205 L 12.271709442138672 24.02488708496093 L 12.277305603027344 24.026762008666985 L 12.281194686889648 24.028057098388665 L 12.288000106811523 24.03032493591308 L 12.3594331741333 24.054126739501946 L 12.520356178283691 24.10805702209472 L 12.522799491882324 24.108562469482415 L 12.87169075012207 24.1805191040039 L 12.873320579528809 24.180854797363274 L 12.930482864379883 24.195442199707024 L 12.9637451171875 24.20403289794921 L 12.985011100769043 24.20946502685546 L 12.98730182647705 24.210048675537102 L 13.570647239685059 24.404773712158196 L 13.573471069335938 24.40589523315429 L 13.626794815063477 24.427085876464837 L 13.674149513244629 24.445810317993157 M -11.75 -81.4022979736328 L -11.749738693237305 -81.40457153320311 L -11.690558433532715 -81.9199981689453 L -11.222098350524902 -85.99999999999999 L -11.147000312805176 -86.65406036376952 L -10.5 -88.45321655273436 L -9.852999687194824 -86.65406036376952 L -9.777901649475098 -85.99999999999999 L -9.309441566467285 -81.9199981689453 L -9.25 -81.4022979736328 L -8.873887062072754 -75.33304595947264 L -8.774561882019043 -73.72799682617186 L -8.732000350952148 -73.04022216796874 L -8.4942626953125 -66.52915954589842 L -8.457962989807129 -65.53600311279295 L -8.333999633789062 -62.14438629150389 L -8.33381175994873 -62.134792327880845 L -8.239867210388184 -57.34400177001952 L -8.085000038146973 -49.446445465087876 L -8.083161354064941 -49.15200042724608 L -8.0603666305542 -45.501689910888665 L -8.032003402709961 -40.95999908447265 L -8 -35.835491180419915 L -8.019142150878906 -32.76800155639648 L -8.031377792358398 -30.807319641113274 L -8.320674896240234 -28.67200088500976 L -8.411718368530273 -27.999999999999993 L -8.360692977905273 -27.999999999999993 L -8.11434268951416 -27.999999999999993 L -8.048895835876465 -27.999999999999993 L -8 -27.999999999999993 L 18 -27.999999999999993 L 18.00806427001953 -27.999999999999993 L 18.038188934326172 -32.76800155639648 L 18.086000442504883 -40.33544540405273 L 18.098247528076172 -40.95999908447265 L 18.192258834838867 -45.753799438476555 L 18.25889778137207 -49.15200042724608 L 18.334999084472656 -53.03285217285155 L 18.335020065307617 -53.03339385986327 L 18.4924373626709 -57.34400177001952 L 18.58745574951172 -59.94593811035155 L 18.732999801635742 -63.928527832031236 L 18.8323974609375 -65.53600311279295 L 19.14093017578125 -70.52565765380858 L 19.25 -72.29111480712889 L 19.250211715698242 -72.29295349121092 L 19.41497802734375 -73.72799682617186 L 19.782241821289062 -76.9266891479492 L 19.85300064086914 -77.54306030273436 L 19.853017807006836 -77.54310607910155 L 20.445499420166016 -79.19065856933592 L 20.5 -79.34213256835936 L 21.07870864868164 -77.73285675048827 L 21.14699935913086 -77.54306030273436 L 21.147018432617188 -77.5429000854492 L 21.585039138793945 -73.72799682617186 L 21.64632225036621 -73.1942672729492 L 21.75 -72.29111480712889 L 22.126113891601562 -66.22104644775389 L 22.16851234436035 -65.53600311279295 L 22.26799964904785 -63.928527832031236 L 22.5057373046875 -57.417560577392564 L 22.508426666259766 -57.34400177001952 L 22.666000366210938 -53.03285217285155 L 22.666187286376953 -53.0232582092285 L 22.742109298706055 -49.15200042724608 L 22.777973175048828 -47.323230743408196 L 22.902751922607422 -40.95999908447265 L 22.915000915527344 -40.33544540405273 L 22.962255477905273 -32.76800155639648 L 22.992029190063477 -27.999999999999993 L 23 -27.999999999999993 L 56 -27.999999999999993 L 56 9.999999999999998 L 18 9.999999999999998 L 16.384000778198242 9.999999999999998 L 14.336000442504883 9.999999999999998 L 12.288000106811523 9.999999999999998 L 10.239999771118164 9.999999999999998 L 8.192000389099121 9.999999999999998 L 5 9.999999999999998 L -6 9.999999999999998 L -34 9.999999999999998 L -34 -27.999999999999993 L -16.996000289916992 -27.999999999999993 L -13 -27.999999999999993 L -12.950529098510742 -27.999999999999993 L -12.948151588439941 -27.999999999999993 L -12.685590744018555 -27.999999999999993 L -12.588119506835938 -27.999999999999993 L -12.67911434173584 -28.67200088500976 L -12.968253135681152 -30.807294845581048 L -12.980632781982422 -32.76800155639648 L -13 -35.835491180419915 L -12.984063148498535 -38.35792922973632 L -12.967621803283691 -40.95999908447265 L -12.915860176086426 -49.15200042724608 L -12.913999557495117 -49.446445465087876 L -12.759133338928223 -57.34400177001952 L -12.664999961853027 -62.14438629150389 L -12.541145324707031 -65.53600311279295 L -12.412545204162598 -69.0575714111328 L -12.267000198364258 -73.04022216796874 L -12.224467277526855 -73.72799682617186 L -11.859068870544434 -79.63665771484374 L -11.75 -81.4022979736328 M 19.480892181396484 -93.73270416259764 L 21.61189079284668 -93.7336959838867 L 26.985017776489258 -93.73620605468749 L 32.768001556396484 -93.73886871337889 L 33.857791900634766 -93.73937225341795 L 32.768001556396484 -93.46494293212889 L 27.331979751586914 -92.09604644775389 L 19.870615005493164 -90.48095703124999 L 15.534197807312012 -89.75573730468749 L 12.36013412475586 -89.41447448730467 L 9.62783145904541 -89.30274963378905 L 6.927191257476807 -89.37825775146483 L 3.8686084747314453 -89.67023468017577 L 0 -90.2766647338867 L -0.18067163228988647 -90.3049850463867 L -6.8179216384887695 -91.68653106689452 L -8 -91.97760009765624 L -8.92347240447998 -92.20498657226561 L -9.436371803283691 -92.33128356933592 L -9.9348783493042 -92.45402526855467 L -10.535938262939453 -92.60202789306639 L -12.133420944213867 -92.99538421630858 L -13 -93.20876312255858 L -15.055423736572266 -93.71487426757811 L -15.055497169494629 -93.71488952636717 L -13 -93.71596527099608 L -12.392667770385742 -93.71628570556639 L -10.663979530334473 -93.71719360351561 L -10.013177871704102 -93.71752929687499 L -9.486997604370117 -93.71780395507811 L -8.953144073486328 -93.71808624267577 L -8 -93.7185821533203 L -6.418370246887207 -93.7194137573242 L 0 -93.7228317260742 L 0.2141994684934616 -93.72294616699217 L 4.142468452453613 -93.72492218017577 L 7.065597057342529 -93.72628021240233 L 7.973508834838867 -93.72684478759764 L 9.630057334899902 -93.72787475585936 L 12.225493431091309 -93.72908782958983 L 15.262657165527344 -93.73072052001952 L 19.480892181396484 -93.73270416259764 z" fill="none" stroke="rgb(255,0,0)" stroke-width="0.001mm" />
</svg>